<mxfile host="app.diagrams.net" agent="Mozilla/5.0 (X11; Linux x86_64; rv:134.0) Gecko/20100101 Firefox/134.0" version="28.2.7">
  <diagram name="Página-1" id="AE3PQ2uxNogtN-aRqjZG">
    <mxGraphModel dx="1426" dy="789" grid="1" gridSize="10" guides="1" tooltips="1" connect="1" arrows="1" fold="1" page="1" pageScale="1" pageWidth="1654" pageHeight="2336" math="0" shadow="0">
      <root>
        <mxCell id="0" />
        <mxCell id="1" parent="0" />
        <mxCell id="8MesdPX3kXBsMtBVrV1h-16" style="edgeStyle=orthogonalEdgeStyle;rounded=0;orthogonalLoop=1;jettySize=auto;html=1;entryX=0.5;entryY=0;entryDx=0;entryDy=0;exitX=0.143;exitY=0.967;exitDx=0;exitDy=0;exitPerimeter=0;" edge="1" parent="1" source="8MesdPX3kXBsMtBVrV1h-4" target="8MesdPX3kXBsMtBVrV1h-15">
          <mxGeometry relative="1" as="geometry">
            <mxPoint x="170" y="261" as="sourcePoint" />
          </mxGeometry>
        </mxCell>
        <mxCell id="8MesdPX3kXBsMtBVrV1h-1" value="USUARIOS" style="swimlane;fontStyle=0;childLayout=stackLayout;horizontal=1;startSize=30;horizontalStack=0;resizeParent=1;resizeParentMax=0;resizeLast=0;collapsible=1;marginBottom=0;whiteSpace=wrap;html=1;" vertex="1" parent="1">
          <mxGeometry x="160" y="130" width="140" height="130" as="geometry" />
        </mxCell>
        <mxCell id="8MesdPX3kXBsMtBVrV1h-2" value="NOMBRE" style="text;strokeColor=none;fillColor=none;align=left;verticalAlign=middle;spacingLeft=4;spacingRight=4;overflow=hidden;points=[[0,0.5],[1,0.5]];portConstraint=eastwest;rotatable=0;whiteSpace=wrap;html=1;" vertex="1" parent="8MesdPX3kXBsMtBVrV1h-1">
          <mxGeometry y="30" width="140" height="30" as="geometry" />
        </mxCell>
        <mxCell id="8MesdPX3kXBsMtBVrV1h-3" value="CORREO ELECTRONICO" style="text;strokeColor=none;fillColor=none;align=left;verticalAlign=middle;spacingLeft=4;spacingRight=4;overflow=hidden;points=[[0,0.5],[1,0.5]];portConstraint=eastwest;rotatable=0;whiteSpace=wrap;html=1;" vertex="1" parent="8MesdPX3kXBsMtBVrV1h-1">
          <mxGeometry y="60" width="140" height="40" as="geometry" />
        </mxCell>
        <mxCell id="8MesdPX3kXBsMtBVrV1h-4" value="TELÉFONO" style="text;strokeColor=none;fillColor=none;align=left;verticalAlign=middle;spacingLeft=4;spacingRight=4;overflow=hidden;points=[[0,0.5],[1,0.5]];portConstraint=eastwest;rotatable=0;whiteSpace=wrap;html=1;" vertex="1" parent="8MesdPX3kXBsMtBVrV1h-1">
          <mxGeometry y="100" width="140" height="30" as="geometry" />
        </mxCell>
        <mxCell id="8MesdPX3kXBsMtBVrV1h-5" value="PELICULA" style="swimlane;fontStyle=0;childLayout=stackLayout;horizontal=1;startSize=30;horizontalStack=0;resizeParent=1;resizeParentMax=0;resizeLast=0;collapsible=1;marginBottom=0;whiteSpace=wrap;html=1;" vertex="1" parent="1">
          <mxGeometry x="660" y="80" width="140" height="180" as="geometry" />
        </mxCell>
        <mxCell id="8MesdPX3kXBsMtBVrV1h-6" value="TITULO" style="text;strokeColor=none;fillColor=none;align=left;verticalAlign=middle;spacingLeft=4;spacingRight=4;overflow=hidden;points=[[0,0.5],[1,0.5]];portConstraint=eastwest;rotatable=0;whiteSpace=wrap;html=1;" vertex="1" parent="8MesdPX3kXBsMtBVrV1h-5">
          <mxGeometry y="30" width="140" height="30" as="geometry" />
        </mxCell>
        <mxCell id="8MesdPX3kXBsMtBVrV1h-7" value="DESCRIPCION" style="text;strokeColor=none;fillColor=none;align=left;verticalAlign=middle;spacingLeft=4;spacingRight=4;overflow=hidden;points=[[0,0.5],[1,0.5]];portConstraint=eastwest;rotatable=0;whiteSpace=wrap;html=1;" vertex="1" parent="8MesdPX3kXBsMtBVrV1h-5">
          <mxGeometry y="60" width="140" height="30" as="geometry" />
        </mxCell>
        <mxCell id="8MesdPX3kXBsMtBVrV1h-8" value="DURACION" style="text;strokeColor=none;fillColor=none;align=left;verticalAlign=middle;spacingLeft=4;spacingRight=4;overflow=hidden;points=[[0,0.5],[1,0.5]];portConstraint=eastwest;rotatable=0;whiteSpace=wrap;html=1;" vertex="1" parent="8MesdPX3kXBsMtBVrV1h-5">
          <mxGeometry y="90" width="140" height="30" as="geometry" />
        </mxCell>
        <mxCell id="8MesdPX3kXBsMtBVrV1h-9" value="GENERO" style="text;strokeColor=none;fillColor=none;align=left;verticalAlign=middle;spacingLeft=4;spacingRight=4;overflow=hidden;points=[[0,0.5],[1,0.5]];portConstraint=eastwest;rotatable=0;whiteSpace=wrap;html=1;" vertex="1" parent="8MesdPX3kXBsMtBVrV1h-5">
          <mxGeometry y="120" width="140" height="30" as="geometry" />
        </mxCell>
        <mxCell id="8MesdPX3kXBsMtBVrV1h-10" value="CLASIFICACIÓN EDAD" style="text;strokeColor=none;fillColor=none;align=left;verticalAlign=middle;spacingLeft=4;spacingRight=4;overflow=hidden;points=[[0,0.5],[1,0.5]];portConstraint=eastwest;rotatable=0;whiteSpace=wrap;html=1;" vertex="1" parent="8MesdPX3kXBsMtBVrV1h-5">
          <mxGeometry y="150" width="140" height="30" as="geometry" />
        </mxCell>
        <mxCell id="8MesdPX3kXBsMtBVrV1h-48" style="edgeStyle=orthogonalEdgeStyle;rounded=0;orthogonalLoop=1;jettySize=auto;html=1;exitX=1;exitY=0;exitDx=0;exitDy=0;entryX=0.5;entryY=1;entryDx=0;entryDy=0;" edge="1" parent="1" source="8MesdPX3kXBsMtBVrV1h-11" target="8MesdPX3kXBsMtBVrV1h-45">
          <mxGeometry relative="1" as="geometry" />
        </mxCell>
        <mxCell id="8MesdPX3kXBsMtBVrV1h-11" value="ENTRADAS" style="swimlane;fontStyle=0;childLayout=stackLayout;horizontal=1;startSize=30;horizontalStack=0;resizeParent=1;resizeParentMax=0;resizeLast=0;collapsible=1;marginBottom=0;whiteSpace=wrap;html=1;" vertex="1" parent="1">
          <mxGeometry x="160" y="510" width="140" height="90" as="geometry" />
        </mxCell>
        <mxCell id="8MesdPX3kXBsMtBVrV1h-13" value="HORARIO" style="text;strokeColor=none;fillColor=none;align=left;verticalAlign=middle;spacingLeft=4;spacingRight=4;overflow=hidden;points=[[0,0.5],[1,0.5]];portConstraint=eastwest;rotatable=0;whiteSpace=wrap;html=1;" vertex="1" parent="8MesdPX3kXBsMtBVrV1h-11">
          <mxGeometry y="30" width="140" height="30" as="geometry" />
        </mxCell>
        <mxCell id="8MesdPX3kXBsMtBVrV1h-14" value="ASIENTO ASIGNADO" style="text;strokeColor=none;fillColor=none;align=left;verticalAlign=middle;spacingLeft=4;spacingRight=4;overflow=hidden;points=[[0,0.5],[1,0.5]];portConstraint=eastwest;rotatable=0;whiteSpace=wrap;html=1;" vertex="1" parent="8MesdPX3kXBsMtBVrV1h-11">
          <mxGeometry y="60" width="140" height="30" as="geometry" />
        </mxCell>
        <mxCell id="8MesdPX3kXBsMtBVrV1h-17" style="edgeStyle=orthogonalEdgeStyle;rounded=0;orthogonalLoop=1;jettySize=auto;html=1;exitX=0.5;exitY=1;exitDx=0;exitDy=0;entryX=0.143;entryY=0;entryDx=0;entryDy=0;entryPerimeter=0;" edge="1" parent="1" source="8MesdPX3kXBsMtBVrV1h-15" target="8MesdPX3kXBsMtBVrV1h-11">
          <mxGeometry relative="1" as="geometry" />
        </mxCell>
        <mxCell id="8MesdPX3kXBsMtBVrV1h-15" value="COMPRO" style="rhombus;whiteSpace=wrap;html=1;" vertex="1" parent="1">
          <mxGeometry x="140" y="330" width="80" height="80" as="geometry" />
        </mxCell>
        <mxCell id="8MesdPX3kXBsMtBVrV1h-18" value="1" style="text;html=1;whiteSpace=wrap;strokeColor=none;fillColor=none;align=center;verticalAlign=middle;rounded=0;" vertex="1" parent="1">
          <mxGeometry x="160" y="260" width="60" height="30" as="geometry" />
        </mxCell>
        <mxCell id="8MesdPX3kXBsMtBVrV1h-30" style="edgeStyle=orthogonalEdgeStyle;rounded=0;orthogonalLoop=1;jettySize=auto;html=1;entryX=0;entryY=0.5;entryDx=0;entryDy=0;" edge="1" parent="1" source="8MesdPX3kXBsMtBVrV1h-20" target="8MesdPX3kXBsMtBVrV1h-29">
          <mxGeometry relative="1" as="geometry" />
        </mxCell>
        <mxCell id="8MesdPX3kXBsMtBVrV1h-57" style="edgeStyle=orthogonalEdgeStyle;rounded=0;orthogonalLoop=1;jettySize=auto;html=1;entryX=0.5;entryY=1;entryDx=0;entryDy=0;" edge="1" parent="1">
          <mxGeometry relative="1" as="geometry">
            <mxPoint x="725" y="490" as="sourcePoint" />
            <mxPoint x="725" y="415" as="targetPoint" />
          </mxGeometry>
        </mxCell>
        <mxCell id="8MesdPX3kXBsMtBVrV1h-20" value="SALA" style="swimlane;fontStyle=0;childLayout=stackLayout;horizontal=1;startSize=30;horizontalStack=0;resizeParent=1;resizeParentMax=0;resizeLast=0;collapsible=1;marginBottom=0;whiteSpace=wrap;html=1;" vertex="1" parent="1">
          <mxGeometry x="650" y="495" width="150" height="100" as="geometry" />
        </mxCell>
        <mxCell id="8MesdPX3kXBsMtBVrV1h-21" value="NOMBRE" style="text;strokeColor=none;fillColor=none;align=left;verticalAlign=middle;spacingLeft=4;spacingRight=4;overflow=hidden;points=[[0,0.5],[1,0.5]];portConstraint=eastwest;rotatable=0;whiteSpace=wrap;html=1;" vertex="1" parent="8MesdPX3kXBsMtBVrV1h-20">
          <mxGeometry y="30" width="150" height="30" as="geometry" />
        </mxCell>
        <mxCell id="8MesdPX3kXBsMtBVrV1h-22" value="&lt;div&gt;CAPACIDAD MAX &lt;br&gt;&lt;/div&gt;&lt;div&gt;ASIENTOS&lt;br&gt;&lt;/div&gt;" style="text;strokeColor=none;fillColor=none;align=left;verticalAlign=middle;spacingLeft=4;spacingRight=4;overflow=hidden;points=[[0,0.5],[1,0.5]];portConstraint=eastwest;rotatable=0;whiteSpace=wrap;html=1;" vertex="1" parent="8MesdPX3kXBsMtBVrV1h-20">
          <mxGeometry y="60" width="150" height="40" as="geometry" />
        </mxCell>
        <mxCell id="8MesdPX3kXBsMtBVrV1h-51" style="edgeStyle=orthogonalEdgeStyle;rounded=0;orthogonalLoop=1;jettySize=auto;html=1;entryX=1;entryY=0.5;entryDx=0;entryDy=0;" edge="1" parent="1" source="8MesdPX3kXBsMtBVrV1h-24" target="8MesdPX3kXBsMtBVrV1h-28">
          <mxGeometry relative="1" as="geometry" />
        </mxCell>
        <mxCell id="8MesdPX3kXBsMtBVrV1h-24" value="PROYECCIONES" style="swimlane;fontStyle=0;childLayout=stackLayout;horizontal=1;startSize=30;horizontalStack=0;resizeParent=1;resizeParentMax=0;resizeLast=0;collapsible=1;marginBottom=0;whiteSpace=wrap;html=1;" vertex="1" parent="1">
          <mxGeometry x="1030" y="310" width="140" height="90" as="geometry" />
        </mxCell>
        <mxCell id="8MesdPX3kXBsMtBVrV1h-25" value="FECHA" style="text;strokeColor=none;fillColor=none;align=left;verticalAlign=middle;spacingLeft=4;spacingRight=4;overflow=hidden;points=[[0,0.5],[1,0.5]];portConstraint=eastwest;rotatable=0;whiteSpace=wrap;html=1;" vertex="1" parent="8MesdPX3kXBsMtBVrV1h-24">
          <mxGeometry y="30" width="140" height="30" as="geometry" />
        </mxCell>
        <mxCell id="8MesdPX3kXBsMtBVrV1h-63" style="edgeStyle=orthogonalEdgeStyle;rounded=0;orthogonalLoop=1;jettySize=auto;html=1;" edge="1" parent="8MesdPX3kXBsMtBVrV1h-24" source="8MesdPX3kXBsMtBVrV1h-26">
          <mxGeometry relative="1" as="geometry">
            <mxPoint x="260" y="330" as="targetPoint" />
          </mxGeometry>
        </mxCell>
        <mxCell id="8MesdPX3kXBsMtBVrV1h-26" value="HORA" style="text;strokeColor=none;fillColor=none;align=left;verticalAlign=middle;spacingLeft=4;spacingRight=4;overflow=hidden;points=[[0,0.5],[1,0.5]];portConstraint=eastwest;rotatable=0;whiteSpace=wrap;html=1;" vertex="1" parent="8MesdPX3kXBsMtBVrV1h-24">
          <mxGeometry y="60" width="140" height="30" as="geometry" />
        </mxCell>
        <mxCell id="8MesdPX3kXBsMtBVrV1h-28" value="&lt;div&gt;TIENEN &lt;br&gt;&lt;/div&gt;&lt;div&gt;ASOCIADA&lt;br&gt;&lt;/div&gt;" style="rhombus;whiteSpace=wrap;html=1;" vertex="1" parent="1">
          <mxGeometry x="960" y="140" width="100" height="100" as="geometry" />
        </mxCell>
        <mxCell id="8MesdPX3kXBsMtBVrV1h-29" value="SOLO" style="rhombus;whiteSpace=wrap;html=1;" vertex="1" parent="1">
          <mxGeometry x="960" y="505" width="80" height="80" as="geometry" />
        </mxCell>
        <mxCell id="8MesdPX3kXBsMtBVrV1h-31" style="edgeStyle=orthogonalEdgeStyle;rounded=0;orthogonalLoop=1;jettySize=auto;html=1;exitX=1;exitY=0.5;exitDx=0;exitDy=0;entryX=0.629;entryY=0.967;entryDx=0;entryDy=0;entryPerimeter=0;" edge="1" parent="1" source="8MesdPX3kXBsMtBVrV1h-29" target="8MesdPX3kXBsMtBVrV1h-26">
          <mxGeometry relative="1" as="geometry" />
        </mxCell>
        <mxCell id="8MesdPX3kXBsMtBVrV1h-32" value="1" style="text;html=1;whiteSpace=wrap;strokeColor=none;fillColor=none;align=center;verticalAlign=middle;rounded=0;" vertex="1" parent="1">
          <mxGeometry x="780" y="520" width="60" height="30" as="geometry" />
        </mxCell>
        <mxCell id="8MesdPX3kXBsMtBVrV1h-33" value="M" style="text;html=1;whiteSpace=wrap;strokeColor=none;fillColor=none;align=center;verticalAlign=middle;rounded=0;" vertex="1" parent="1">
          <mxGeometry x="1080" y="400" width="60" height="30" as="geometry" />
        </mxCell>
        <mxCell id="8MesdPX3kXBsMtBVrV1h-36" value="TIENE" style="rhombus;whiteSpace=wrap;html=1;" vertex="1" parent="1">
          <mxGeometry x="440" y="320" width="80" height="80" as="geometry" />
        </mxCell>
        <mxCell id="8MesdPX3kXBsMtBVrV1h-39" value="1" style="text;html=1;whiteSpace=wrap;strokeColor=none;fillColor=none;align=center;verticalAlign=middle;rounded=0;" vertex="1" parent="1">
          <mxGeometry x="620" y="120" width="60" height="30" as="geometry" />
        </mxCell>
        <mxCell id="8MesdPX3kXBsMtBVrV1h-40" value="M" style="text;html=1;whiteSpace=wrap;strokeColor=none;fillColor=none;align=center;verticalAlign=middle;rounded=0;" vertex="1" parent="1">
          <mxGeometry x="280" y="520" width="60" height="30" as="geometry" />
        </mxCell>
        <mxCell id="8MesdPX3kXBsMtBVrV1h-41" style="edgeStyle=orthogonalEdgeStyle;rounded=0;orthogonalLoop=1;jettySize=auto;html=1;entryX=0.5;entryY=0;entryDx=0;entryDy=0;" edge="1" parent="1" source="8MesdPX3kXBsMtBVrV1h-7" target="8MesdPX3kXBsMtBVrV1h-36">
          <mxGeometry relative="1" as="geometry" />
        </mxCell>
        <mxCell id="8MesdPX3kXBsMtBVrV1h-42" style="edgeStyle=orthogonalEdgeStyle;rounded=0;orthogonalLoop=1;jettySize=auto;html=1;entryX=1.021;entryY=0.733;entryDx=0;entryDy=0;entryPerimeter=0;" edge="1" parent="1" source="8MesdPX3kXBsMtBVrV1h-36" target="8MesdPX3kXBsMtBVrV1h-13">
          <mxGeometry relative="1" as="geometry" />
        </mxCell>
        <mxCell id="8MesdPX3kXBsMtBVrV1h-44" value="M" style="text;html=1;whiteSpace=wrap;strokeColor=none;fillColor=none;align=center;verticalAlign=middle;rounded=0;" vertex="1" parent="1">
          <mxGeometry x="160" y="475" width="60" height="30" as="geometry" />
        </mxCell>
        <mxCell id="8MesdPX3kXBsMtBVrV1h-46" style="edgeStyle=orthogonalEdgeStyle;rounded=0;orthogonalLoop=1;jettySize=auto;html=1;entryX=1;entryY=1;entryDx=0;entryDy=0;" edge="1" parent="1" source="8MesdPX3kXBsMtBVrV1h-45" target="8MesdPX3kXBsMtBVrV1h-1">
          <mxGeometry relative="1" as="geometry" />
        </mxCell>
        <mxCell id="8MesdPX3kXBsMtBVrV1h-45" value="TIENE" style="rhombus;whiteSpace=wrap;html=1;" vertex="1" parent="1">
          <mxGeometry x="260" y="330" width="80" height="80" as="geometry" />
        </mxCell>
        <mxCell id="8MesdPX3kXBsMtBVrV1h-49" value="1" style="text;html=1;whiteSpace=wrap;strokeColor=none;fillColor=none;align=center;verticalAlign=middle;rounded=0;" vertex="1" parent="1">
          <mxGeometry x="260" y="480" width="60" height="30" as="geometry" />
        </mxCell>
        <mxCell id="8MesdPX3kXBsMtBVrV1h-50" value="1" style="text;html=1;whiteSpace=wrap;strokeColor=none;fillColor=none;align=center;verticalAlign=middle;rounded=0;" vertex="1" parent="1">
          <mxGeometry x="260" y="260" width="60" height="30" as="geometry" />
        </mxCell>
        <mxCell id="8MesdPX3kXBsMtBVrV1h-52" style="edgeStyle=orthogonalEdgeStyle;rounded=0;orthogonalLoop=1;jettySize=auto;html=1;" edge="1" parent="1" source="8MesdPX3kXBsMtBVrV1h-28">
          <mxGeometry relative="1" as="geometry">
            <mxPoint x="800" y="190" as="targetPoint" />
          </mxGeometry>
        </mxCell>
        <mxCell id="8MesdPX3kXBsMtBVrV1h-53" value="M" style="text;html=1;whiteSpace=wrap;strokeColor=none;fillColor=none;align=center;verticalAlign=middle;rounded=0;" vertex="1" parent="1">
          <mxGeometry x="1060" y="280" width="60" height="30" as="geometry" />
        </mxCell>
        <mxCell id="8MesdPX3kXBsMtBVrV1h-55" value="1" style="text;html=1;whiteSpace=wrap;strokeColor=none;fillColor=none;align=center;verticalAlign=middle;rounded=0;" vertex="1" parent="1">
          <mxGeometry x="780" y="155" width="60" height="30" as="geometry" />
        </mxCell>
        <mxCell id="8MesdPX3kXBsMtBVrV1h-56" value="TIENE" style="rhombus;whiteSpace=wrap;html=1;" vertex="1" parent="1">
          <mxGeometry x="685" y="340" width="80" height="80" as="geometry" />
        </mxCell>
        <mxCell id="8MesdPX3kXBsMtBVrV1h-58" style="edgeStyle=orthogonalEdgeStyle;rounded=0;orthogonalLoop=1;jettySize=auto;html=1;entryX=0.464;entryY=1;entryDx=0;entryDy=0;entryPerimeter=0;" edge="1" parent="1" source="8MesdPX3kXBsMtBVrV1h-56" target="8MesdPX3kXBsMtBVrV1h-10">
          <mxGeometry relative="1" as="geometry" />
        </mxCell>
        <mxCell id="8MesdPX3kXBsMtBVrV1h-59" value="M" style="text;html=1;whiteSpace=wrap;strokeColor=none;fillColor=none;align=center;verticalAlign=middle;rounded=0;" vertex="1" parent="1">
          <mxGeometry x="680" y="260" width="60" height="30" as="geometry" />
        </mxCell>
        <mxCell id="8MesdPX3kXBsMtBVrV1h-60" value="1" style="text;html=1;whiteSpace=wrap;strokeColor=none;fillColor=none;align=center;verticalAlign=middle;rounded=0;" vertex="1" parent="1">
          <mxGeometry x="685" y="460" width="60" height="30" as="geometry" />
        </mxCell>
        <mxCell id="8MesdPX3kXBsMtBVrV1h-65" style="edgeStyle=orthogonalEdgeStyle;rounded=0;orthogonalLoop=1;jettySize=auto;html=1;" edge="1" parent="1" source="8MesdPX3kXBsMtBVrV1h-62">
          <mxGeometry relative="1" as="geometry">
            <mxPoint x="220" y="600" as="targetPoint" />
          </mxGeometry>
        </mxCell>
        <mxCell id="8MesdPX3kXBsMtBVrV1h-62" value="CONTIENE" style="rhombus;whiteSpace=wrap;html=1;" vertex="1" parent="1">
          <mxGeometry x="1250" y="640" width="80" height="80" as="geometry" />
        </mxCell>
        <mxCell id="8MesdPX3kXBsMtBVrV1h-64" value="1" style="text;html=1;whiteSpace=wrap;strokeColor=none;fillColor=none;align=center;verticalAlign=middle;rounded=0;" vertex="1" parent="1">
          <mxGeometry x="1150" y="360" width="60" height="30" as="geometry" />
        </mxCell>
        <mxCell id="8MesdPX3kXBsMtBVrV1h-66" value="M" style="text;html=1;whiteSpace=wrap;strokeColor=none;fillColor=none;align=center;verticalAlign=middle;rounded=0;" vertex="1" parent="1">
          <mxGeometry x="210" y="600" width="60" height="30" as="geometry" />
        </mxCell>
        <mxCell id="8MesdPX3kXBsMtBVrV1h-67" style="edgeStyle=orthogonalEdgeStyle;rounded=0;orthogonalLoop=1;jettySize=auto;html=1;exitX=0.5;exitY=1;exitDx=0;exitDy=0;" edge="1" parent="1" source="8MesdPX3kXBsMtBVrV1h-66" target="8MesdPX3kXBsMtBVrV1h-66">
          <mxGeometry relative="1" as="geometry" />
        </mxCell>
      </root>
    </mxGraphModel>
  </diagram>
</mxfile>
